<?xml version="1.0" standalone="no"?>
<!DOCTYPE svg PUBLIC "-//W3C//DTD SVG 20010904//EN"
 "http://www.w3.org/TR/2001/REC-SVG-20010904/DTD/svg10.dtd">
<svg version="1.0" xmlns="http://www.w3.org/2000/svg"
 width="520.000000pt" height="520.000000pt" viewBox="0 0 520.000000 520.000000"
 preserveAspectRatio="xMidYMid meet">
<metadata>
Created by potrace 1.11, written by Peter Selinger 2001-2013
</metadata>
<g transform="translate(0.000000,520.000000) scale(0.100000,-0.100000)"
fill="#000000" stroke="none">
<path d="M0 2600 l0 -2600 2600 0 2600 0 0 2600 0 2600 -2600 0 -2600 0 0
-2600z m2825 716 c232 -75 417 -259 491 -491 34 -104 43 -267 21 -372 -58
-271 -248 -482 -512 -570 -72 -24 -94 -27 -225 -27 -131 0 -153 3 -225 27
-233 78 -414 259 -492 492 -24 72 -27 94 -27 225 0 131 3 153 27 225 87 260
296 450 561 511 97 22 282 13 381 -20z"/>
</g>
</svg>
